<svg width="1920" height="1024" viewBox="0 0 1920 1024" fill="none" xmlns="http://www.w3.org/2000/svg">
<g filter="url(#filter0_f)">
<path fill-rule="evenodd" clip-rule="evenodd" d="M1472.09 -268.048C1533.61 -266.268 1599.11 -283.335 1651.4 -250.863C1705.17 -217.465 1731.85 -155.038 1751.13 -94.7464C1770.33 -34.6961 1777.44 28.878 1760.25 89.5368C1742.6 151.859 1705.25 206.693 1654.37 246.785C1601.98 288.063 1538.15 325.826 1472.09 316.596C1408.26 307.677 1378.92 233.282 1323.41 200.538C1258.27 162.114 1154.61 177.816 1121.53 109.809C1089.1 43.1414 1147.41 -32.0206 1177.3 -99.8652C1204.05 -160.605 1227.43 -228.571 1285.08 -261.462C1340.62 -293.145 1408.18 -269.897 1472.09 -268.048Z" fill="#FFBC57"/>
<path fill-rule="evenodd" clip-rule="evenodd" d="M1472.09 -268.048C1533.61 -266.268 1599.11 -283.335 1651.4 -250.863C1705.17 -217.465 1731.85 -155.038 1751.13 -94.7464C1770.33 -34.6961 1777.44 28.878 1760.25 89.5368C1742.6 151.859 1705.25 206.693 1654.37 246.785C1601.98 288.063 1538.15 325.826 1472.09 316.596C1408.26 307.677 1378.92 233.282 1323.41 200.538C1258.27 162.114 1154.61 177.816 1121.53 109.809C1089.1 43.1414 1147.41 -32.0206 1177.3 -99.8652C1204.05 -160.605 1227.43 -228.571 1285.08 -261.462C1340.62 -293.145 1408.18 -269.897 1472.09 -268.048Z" fill="url(#paint0_radial)"/>
<path fill-rule="evenodd" clip-rule="evenodd" d="M1472.09 -268.048C1533.61 -266.268 1599.11 -283.335 1651.4 -250.863C1705.17 -217.465 1731.85 -155.038 1751.13 -94.7464C1770.33 -34.6961 1777.44 28.878 1760.25 89.5368C1742.6 151.859 1705.25 206.693 1654.37 246.785C1601.98 288.063 1538.15 325.826 1472.09 316.596C1408.26 307.677 1378.92 233.282 1323.41 200.538C1258.27 162.114 1154.61 177.816 1121.53 109.809C1089.1 43.1414 1147.41 -32.0206 1177.3 -99.8652C1204.05 -160.605 1227.43 -228.571 1285.08 -261.462C1340.62 -293.145 1408.18 -269.897 1472.09 -268.048Z" fill="url(#paint1_linear)"/>
<path fill-rule="evenodd" clip-rule="evenodd" d="M1472.09 -268.048C1533.61 -266.268 1599.11 -283.335 1651.4 -250.863C1705.17 -217.465 1731.85 -155.038 1751.13 -94.7464C1770.33 -34.6961 1777.44 28.878 1760.25 89.5368C1742.6 151.859 1705.25 206.693 1654.37 246.785C1601.98 288.063 1538.15 325.826 1472.09 316.596C1408.26 307.677 1378.92 233.282 1323.41 200.538C1258.27 162.114 1154.61 177.816 1121.53 109.809C1089.1 43.1414 1147.41 -32.0206 1177.3 -99.8652C1204.05 -160.605 1227.43 -228.571 1285.08 -261.462C1340.62 -293.145 1408.18 -269.897 1472.09 -268.048Z" fill="url(#paint2_linear)"/>
<path fill-rule="evenodd" clip-rule="evenodd" d="M1472.09 -268.048C1533.61 -266.268 1599.11 -283.335 1651.4 -250.863C1705.17 -217.465 1731.85 -155.038 1751.13 -94.7464C1770.33 -34.6961 1777.44 28.878 1760.25 89.5368C1742.6 151.859 1705.25 206.693 1654.37 246.785C1601.98 288.063 1538.15 325.826 1472.09 316.596C1408.26 307.677 1378.92 233.282 1323.41 200.538C1258.27 162.114 1154.61 177.816 1121.53 109.809C1089.1 43.1414 1147.41 -32.0206 1177.3 -99.8652C1204.05 -160.605 1227.43 -228.571 1285.08 -261.462C1340.62 -293.145 1408.18 -269.897 1472.09 -268.048Z" fill="url(#paint3_linear)"/>
<path fill-rule="evenodd" clip-rule="evenodd" d="M1472.09 -268.048C1533.61 -266.268 1599.11 -283.335 1651.4 -250.863C1705.17 -217.465 1731.85 -155.038 1751.13 -94.7464C1770.33 -34.6961 1777.44 28.878 1760.25 89.5368C1742.6 151.859 1705.25 206.693 1654.37 246.785C1601.98 288.063 1538.15 325.826 1472.09 316.596C1408.26 307.677 1378.92 233.282 1323.41 200.538C1258.27 162.114 1154.61 177.816 1121.53 109.809C1089.1 43.1414 1147.41 -32.0206 1177.3 -99.8652C1204.05 -160.605 1227.43 -228.571 1285.08 -261.462C1340.62 -293.145 1408.18 -269.897 1472.09 -268.048Z" fill="url(#paint4_linear)"/>
</g>
<g filter="url(#filter1_f)">
<circle cx="1583.78" cy="1221.78" r="478.573" transform="rotate(59.6559 1583.78 1221.78)" fill="#FFBC57"/>
<circle cx="1583.78" cy="1221.78" r="478.573" transform="rotate(59.6559 1583.78 1221.78)" fill="url(#paint5_radial)"/>
</g>
<g filter="url(#filter2_f)">
<path fill-rule="evenodd" clip-rule="evenodd" d="M229.834 22.6696C321.893 8.59532 413.874 52.1276 488.918 107.282C563.67 162.223 621.555 239.18 646.136 328.64C670.018 415.559 659.913 509.59 621.919 591.33C586.69 667.121 513.354 712.004 445.358 760.596C377.97 808.754 312.232 863.136 229.834 871.528C142.16 880.458 45.7817 866.508 -20.1336 808.008C-84.0645 751.269 -81.9467 655.089 -106.351 573.165C-129.975 493.861 -186.106 415.765 -160.411 337.108C-134.724 258.474 -41.8646 230.481 22.5465 178.583C91.5598 122.975 142.227 36.0632 229.834 22.6696Z" fill="#FFBC57"/>
<path fill-rule="evenodd" clip-rule="evenodd" d="M229.834 22.6696C321.893 8.59532 413.874 52.1276 488.918 107.282C563.67 162.223 621.555 239.18 646.136 328.64C670.018 415.559 659.913 509.59 621.919 591.33C586.69 667.121 513.354 712.004 445.358 760.596C377.97 808.754 312.232 863.136 229.834 871.528C142.16 880.458 45.7817 866.508 -20.1336 808.008C-84.0645 751.269 -81.9467 655.089 -106.351 573.165C-129.975 493.861 -186.106 415.765 -160.411 337.108C-134.724 258.474 -41.8646 230.481 22.5465 178.583C91.5598 122.975 142.227 36.0632 229.834 22.6696Z" fill="url(#paint6_radial)"/>
<path fill-rule="evenodd" clip-rule="evenodd" d="M229.834 22.6696C321.893 8.59532 413.874 52.1276 488.918 107.282C563.67 162.223 621.555 239.18 646.136 328.64C670.018 415.559 659.913 509.59 621.919 591.33C586.69 667.121 513.354 712.004 445.358 760.596C377.97 808.754 312.232 863.136 229.834 871.528C142.16 880.458 45.7817 866.508 -20.1336 808.008C-84.0645 751.269 -81.9467 655.089 -106.351 573.165C-129.975 493.861 -186.106 415.765 -160.411 337.108C-134.724 258.474 -41.8646 230.481 22.5465 178.583C91.5598 122.975 142.227 36.0632 229.834 22.6696Z" fill="url(#paint7_linear)"/>
<path fill-rule="evenodd" clip-rule="evenodd" d="M229.834 22.6696C321.893 8.59532 413.874 52.1276 488.918 107.282C563.67 162.223 621.555 239.18 646.136 328.64C670.018 415.559 659.913 509.59 621.919 591.33C586.69 667.121 513.354 712.004 445.358 760.596C377.97 808.754 312.232 863.136 229.834 871.528C142.16 880.458 45.7817 866.508 -20.1336 808.008C-84.0645 751.269 -81.9467 655.089 -106.351 573.165C-129.975 493.861 -186.106 415.765 -160.411 337.108C-134.724 258.474 -41.8646 230.481 22.5465 178.583C91.5598 122.975 142.227 36.0632 229.834 22.6696Z" fill="url(#paint8_linear)"/>
<path fill-rule="evenodd" clip-rule="evenodd" d="M229.834 22.6696C321.893 8.59532 413.874 52.1276 488.918 107.282C563.67 162.223 621.555 239.18 646.136 328.64C670.018 415.559 659.913 509.59 621.919 591.33C586.69 667.121 513.354 712.004 445.358 760.596C377.97 808.754 312.232 863.136 229.834 871.528C142.16 880.458 45.7817 866.508 -20.1336 808.008C-84.0645 751.269 -81.9467 655.089 -106.351 573.165C-129.975 493.861 -186.106 415.765 -160.411 337.108C-134.724 258.474 -41.8646 230.481 22.5465 178.583C91.5598 122.975 142.227 36.0632 229.834 22.6696Z" fill="url(#paint9_linear)"/>
</g>
<defs>
<filter id="filter0_f" x="762" y="-628" width="1358" height="1296" filterUnits="userSpaceOnUse" color-interpolation-filters="sRGB">
<feFlood flood-opacity="0" result="BackgroundImageFix"/>
<feBlend mode="normal" in="SourceGraphic" in2="BackgroundImageFix" result="shape"/>
<feGaussianBlur stdDeviation="175" result="effect1_foregroundBlur"/>
</filter>
<filter id="filter1_f" x="429" y="67" width="2309.57" height="2309.57" filterUnits="userSpaceOnUse" color-interpolation-filters="sRGB">
<feFlood flood-opacity="0" result="BackgroundImageFix"/>
<feBlend mode="normal" in="SourceGraphic" in2="BackgroundImageFix" result="shape"/>
<feGaussianBlur stdDeviation="250" result="effect1_foregroundBlur"/>
</filter>
<filter id="filter2_f" x="-517" y="-330" width="1526" height="1554" filterUnits="userSpaceOnUse" color-interpolation-filters="sRGB">
<feFlood flood-opacity="0" result="BackgroundImageFix"/>
<feBlend mode="normal" in="SourceGraphic" in2="BackgroundImageFix" result="shape"/>
<feGaussianBlur stdDeviation="175" result="effect1_foregroundBlur"/>
</filter>
<radialGradient id="paint0_radial" cx="0" cy="0" r="1" gradientUnits="userSpaceOnUse" gradientTransform="translate(1521.74 -311.103) rotate(86.6995) scale(987.82 92942.4)">
<stop stop-color="#EE7C65"/>
<stop offset="0.21875" stop-color="#F7C39D"/>
<stop offset="0.395833" stop-color="#EAD899"/>
<stop offset="0.578125" stop-color="#87D5FF"/>
<stop offset="0.791667" stop-color="#9281F5"/>
<stop offset="1" stop-color="#FA5284"/>
</radialGradient>
<linearGradient id="paint1_linear" x1="1112" y1="20" x2="1728.35" y2="20" gradientUnits="userSpaceOnUse">
<stop stop-color="#FF48E2"/>
<stop offset="1" stop-color="#FF2936"/>
</linearGradient>
<linearGradient id="paint2_linear" x1="1112" y1="28.5143" x2="1541.58" y2="341.762" gradientUnits="userSpaceOnUse">
<stop stop-color="#FAA94D"/>
<stop offset="1" stop-color="#F27038"/>
</linearGradient>
<linearGradient id="paint3_linear" x1="1112" y1="28.5143" x2="1537.34" y2="343.092" gradientUnits="userSpaceOnUse">
<stop stop-color="#81A1FF"/>
<stop offset="1" stop-color="#5449E8"/>
</linearGradient>
<linearGradient id="paint4_linear" x1="1112" y1="28.5143" x2="1539.27" y2="342.496" gradientUnits="userSpaceOnUse">
<stop stop-color="#FF5B5B"/>
<stop offset="1" stop-color="#7544FF"/>
</linearGradient>
<radialGradient id="paint5_radial" cx="0" cy="0" r="1" gradientUnits="userSpaceOnUse" gradientTransform="translate(1254.42 1418.65) rotate(-41.5522) scale(738.563 62980)">
<stop stop-color="#EE7C65"/>
<stop offset="0.21875" stop-color="#F7C39D"/>
<stop offset="0.395833" stop-color="#EAD899"/>
<stop offset="0.578125" stop-color="#87D5FF"/>
<stop offset="0.791667" stop-color="#9281F5"/>
<stop offset="1" stop-color="#FA5284"/>
</radialGradient>
<radialGradient id="paint6_radial" cx="0" cy="0" r="1" gradientUnits="userSpaceOnUse" gradientTransform="translate(347.352 -27.4323) rotate(87.1078) scale(1414.89 116717)">
<stop stop-color="#EE7C65"/>
<stop offset="0.21875" stop-color="#F7C39D"/>
<stop offset="0.395833" stop-color="#EAD899"/>
<stop offset="0.578125" stop-color="#87D5FF"/>
<stop offset="0.791667" stop-color="#9281F5"/>
<stop offset="1" stop-color="#FA5284"/>
</radialGradient>
<linearGradient id="paint7_linear" x1="-167" y1="447" x2="606.722" y2="447" gradientUnits="userSpaceOnUse">
<stop stop-color="#FF48E2"/>
<stop offset="1" stop-color="#FF2936"/>
</linearGradient>
<linearGradient id="paint8_linear" x1="-167" y1="459.2" x2="419.605" y2="833.94" gradientUnits="userSpaceOnUse">
<stop stop-color="#FAA94D"/>
<stop offset="1" stop-color="#F27038"/>
</linearGradient>
<linearGradient id="paint9_linear" x1="-167" y1="459.2" x2="414.762" y2="836.146" gradientUnits="userSpaceOnUse">
<stop stop-color="#81A1FF"/>
<stop offset="1" stop-color="#5449E8"/>
</linearGradient>
</defs>
</svg>
