<svg width="166" height="42" viewBox="0 0 166 42" fill="none" xmlns="http://www.w3.org/2000/svg">
<g clip-path="url(#clip0)">
<path d="M30.5944 21.0312C30.5944 18.2004 30.6343 15.3671 30.557 12.5363C30.542 12.029 30.1578 11.3213 29.7336 11.0651C23.6211 7.38712 17.4786 3.75734 11.3161 0.16306C10.9469 -0.0525458 10.2558 -0.0601554 9.88905 0.150377C6.84275 1.8803 3.8239 3.66095 0.83748 5.4974C0.438293 5.74344 0.0366111 6.38265 0.0366111 6.8443C-0.00829745 16.227 -0.00829745 25.6096 0.0366111 34.9923C0.039106 35.459 0.405859 36.1134 0.800057 36.3569C3.78398 38.1959 6.82778 39.9334 9.82418 41.7521C10.4205 42.1149 10.8321 42.0616 11.3985 41.7242C17.4886 38.0894 23.5887 34.4723 29.7062 30.8805C30.3723 30.4899 30.6268 30.0486 30.6143 29.2749C30.5719 26.5253 30.5944 23.7782 30.5944 21.0312ZM25.2528 26.4391C25.2478 26.8119 24.9609 27.3421 24.649 27.5298C20.1781 30.2236 15.6872 32.8844 11.1764 35.5097C10.8671 35.6898 10.2907 35.667 9.9639 35.492C8.67402 34.8096 7.4565 33.9853 6.16912 33.3004C5.47554 32.9301 5.28093 32.4507 5.28592 31.6897C5.32085 28.0954 5.30089 24.4986 5.30089 20.9043C5.30339 20.9043 5.30339 20.9043 5.30588 20.9043C5.30588 17.3101 5.27345 13.7132 5.34331 10.119C5.35328 9.61674 5.74748 8.95217 6.16413 8.65793C7.3592 7.82087 8.6366 7.09542 9.93146 6.42324C10.2882 6.23807 10.9145 6.22792 11.2563 6.42577C15.7371 9.01812 20.1956 11.651 24.634 14.3195C24.9484 14.5072 25.2428 15.0297 25.2478 15.4C25.2952 19.0806 25.2977 22.7611 25.2528 26.4391Z" fill="white"/>
<path d="M15.9673 15.4019C17.3046 16.1933 18.4523 16.8502 19.5725 17.5554C19.7796 17.6847 19.9817 18.0094 19.9867 18.2479C20.0216 20.0209 20.0216 21.7965 19.9916 23.572C19.9867 23.8206 19.822 24.1707 19.6249 24.295C18.4747 25.0204 17.2921 25.6926 15.9648 26.4764C15.9673 22.7248 15.9673 19.1965 15.9673 15.4019Z" fill="white"/>
</g>
<path d="M54.5557 11.7761C55.8118 11.7761 56.9798 12.0185 58.1036 12.4812C59.2275 12.9439 60.1751 13.6049 60.9905 14.4422C61.8059 15.2795 62.467 16.249 62.9298 17.3507C63.3925 18.4524 63.635 19.6422 63.635 20.8982C63.635 22.1761 63.3925 23.3439 62.9298 24.4456C62.467 25.5473 61.8059 26.5168 60.9905 27.3541C60.1751 28.1914 59.2055 28.8304 58.1036 29.3151C57.0018 29.7999 55.8118 30.0202 54.5557 30.0202H47.7021V11.7761H54.5557ZM54.5557 26.9795C55.3931 26.9795 56.1644 26.8253 56.9136 26.4948C57.6629 26.1643 58.2799 25.7456 58.8309 25.1948C59.3818 24.6439 59.8225 24.0049 60.1311 23.2558C60.4396 22.5287 60.6159 21.7354 60.6159 20.8982C60.6159 20.0609 60.4616 19.2676 60.1311 18.5405C59.8225 17.7914 59.3818 17.1524 58.8309 16.6236C58.2799 16.0948 57.6409 15.6321 56.9136 15.3236C56.1864 15.0151 55.3711 14.8388 54.5557 14.8388H50.7433V27.0015L54.5557 26.9795Z" fill="white"/>
<path d="M69.343 24.7096C69.5854 25.4588 70.0261 26.0537 70.6432 26.5384C71.2602 27.0232 71.9874 27.2435 72.8248 27.2435C73.3757 27.2435 73.8826 27.1333 74.3454 26.913C74.8082 26.6927 75.2048 26.4062 75.5574 26.0316L78.0917 27.7283C77.4746 28.5215 76.7033 29.1384 75.7998 29.6011C74.8963 30.0638 73.9046 30.2842 72.8248 30.2842C71.8993 30.2842 71.0398 30.1079 70.2244 29.7554C69.4091 29.4028 68.6819 28.9181 68.0869 28.3232C67.4919 27.7283 67.007 27.0011 66.6544 26.1859C66.3018 25.3706 66.1035 24.4893 66.1035 23.5638C66.1035 22.6384 66.2798 21.7791 66.6324 20.9638C66.985 20.1486 67.4698 19.4215 68.0648 18.8266C68.6598 18.2316 69.387 17.7469 70.2024 17.3944C71.0178 17.0418 71.8993 16.8435 72.8248 16.8435C73.7504 16.8435 74.6319 17.0198 75.4472 17.3723C76.2626 17.7249 76.9678 18.2096 77.5848 18.8045C78.2019 19.4215 78.6646 20.1266 79.0172 20.9418C79.3698 21.7571 79.5461 22.6384 79.5461 23.5418C79.5461 23.7401 79.5461 23.9164 79.5241 24.1147C79.5021 24.291 79.48 24.4893 79.4359 24.6876H69.343V24.7096ZM76.2626 22.3079C76.0202 21.6028 75.5795 21.0299 74.9624 20.5672C74.3454 20.1045 73.6182 19.8842 72.8248 19.8842C72.0315 19.8842 71.3263 20.1045 70.6872 20.5672C70.0702 21.0079 69.6074 21.6028 69.343 22.3079H76.2626Z" fill="white"/>
<path d="M91.181 22.6609C91.181 22.2643 91.1148 21.9117 90.9606 21.5812C90.8063 21.2507 90.608 20.9422 90.3656 20.6999C90.1232 20.4354 89.8147 20.2371 89.4841 20.1049C89.1535 19.9727 88.7789 19.8846 88.3822 19.8846C87.9856 19.8846 87.633 19.9507 87.3024 20.1049C86.9719 20.2371 86.6854 20.4354 86.4209 20.6999C86.1785 20.9643 85.9802 21.2507 85.8259 21.5812C85.6717 21.9117 85.6056 22.2863 85.6056 22.6609V30.0202H82.5645V11.7761H85.6056V17.7473C86.3548 17.1524 87.2804 16.8439 88.3822 16.8439C89.1976 16.8439 89.9469 16.9982 90.6521 17.3066C91.3572 17.6151 91.9743 18.0338 92.5032 18.5626C93.0321 19.0914 93.4508 19.7083 93.7593 20.4134C94.0678 21.1185 94.2221 21.8676 94.2221 22.6609V30.0202H91.181V22.6609Z" fill="white"/>
<path d="M100.768 11.7761V14.8168H97.7266V11.7761H100.768ZM97.7706 17.0863H100.79L100.768 30.0202H97.7266L97.7706 17.0863Z" fill="white"/>
<path d="M110.618 30.2846C109.692 30.2846 108.833 30.1083 108.017 29.7558C107.202 29.4032 106.475 28.9185 105.88 28.3236C105.285 27.7287 104.8 27.0015 104.447 26.1863C104.095 25.371 103.896 24.4897 103.896 23.5643C103.896 22.6388 104.073 21.7575 104.425 20.9422C104.778 20.127 105.263 19.4219 105.858 18.8049C106.453 18.188 107.18 17.7253 107.995 17.3727C108.811 17.0202 109.692 16.8439 110.596 16.8439C111.367 16.8439 112.072 16.9761 112.667 17.2185C113.284 17.4609 113.813 17.8134 114.276 18.2541V11.7761H117.317V30.0202H114.276V28.8744C113.813 29.3151 113.284 29.6676 112.667 29.91C112.072 30.1524 111.389 30.2846 110.618 30.2846ZM110.618 19.8846C110.111 19.8846 109.626 19.9727 109.185 20.171C108.745 20.3693 108.348 20.6337 108.017 20.9422C107.687 21.2727 107.422 21.6473 107.246 22.11C107.07 22.5727 106.96 23.0354 106.96 23.5422C106.96 24.027 107.048 24.5117 107.246 24.9524C107.444 25.3931 107.709 25.7897 108.017 26.1202C108.348 26.4507 108.723 26.7151 109.185 26.9134C109.626 27.1117 110.111 27.1999 110.618 27.1999C111.125 27.1999 111.609 27.1117 112.05 26.9134C112.491 26.7151 112.888 26.4507 113.218 26.1202C113.549 25.7897 113.813 25.4371 113.989 24.9744C114.188 24.5337 114.276 24.049 114.276 23.5643C114.276 23.0575 114.188 22.5727 113.989 22.1321C113.791 21.6914 113.527 21.2948 113.218 20.9643C112.91 20.6338 112.513 20.3693 112.05 20.1931C111.587 20.0168 111.125 19.8846 110.618 19.8846Z" fill="white"/>
<path d="M127.19 30.2846C126.264 30.2846 125.405 30.1083 124.589 29.7558C123.774 29.4032 123.047 28.9185 122.452 28.3236C121.857 27.7287 121.372 27.0015 121.019 26.1863C120.667 25.371 120.49 24.4897 120.49 23.5863C120.49 22.6609 120.667 21.7795 121.019 20.9643C121.372 20.149 121.857 19.4439 122.452 18.827C123.047 18.21 123.774 17.7473 124.589 17.3948C125.405 17.0422 126.286 16.866 127.19 16.866C127.961 16.866 128.666 16.9982 129.261 17.2405C129.878 17.4829 130.407 17.8354 130.87 18.2761V11.7761H133.911V30.0202H130.87V28.8744C130.407 29.3151 129.878 29.6676 129.261 29.91C128.666 30.1524 127.961 30.2846 127.19 30.2846ZM127.19 19.8846C126.683 19.8846 126.198 19.9727 125.757 20.171C125.316 20.3693 124.92 20.6337 124.589 20.9422C124.259 21.2727 123.994 21.6473 123.818 22.11C123.642 22.5727 123.509 23.0575 123.509 23.5643C123.509 24.049 123.597 24.5337 123.796 24.9744C123.994 25.4151 124.259 25.8117 124.567 26.1422C124.898 26.4727 125.272 26.7371 125.735 26.9354C126.176 27.1338 126.661 27.2219 127.167 27.2219C127.674 27.2219 128.159 27.1338 128.6 26.9354C129.041 26.7371 129.437 26.4727 129.768 26.1422C130.098 25.8117 130.363 25.4151 130.539 24.9744C130.737 24.5337 130.826 24.049 130.826 23.5643C130.826 23.0575 130.737 22.5727 130.539 22.1321C130.341 21.6914 130.076 21.2948 129.768 20.9643C129.459 20.6338 129.063 20.3693 128.6 20.1931C128.137 20.0168 127.696 19.8846 127.19 19.8846Z" fill="white"/>
<path d="M140.28 24.7096C140.523 25.4588 140.963 26.0537 141.581 26.5384C142.198 27.0232 142.925 27.2435 143.762 27.2435C144.313 27.2435 144.82 27.1333 145.283 26.913C145.746 26.6927 146.142 26.4062 146.495 26.0316L149.029 27.7283C148.412 28.5215 147.641 29.1384 146.737 29.6011C145.834 30.0638 144.842 30.2842 143.784 30.2842C142.859 30.2842 141.999 30.1079 141.184 29.7554C140.368 29.4028 139.641 28.9181 139.046 28.3232C138.451 27.7283 137.966 27.0011 137.614 26.1859C137.261 25.3706 137.085 24.4893 137.085 23.5859C137.085 22.6605 137.261 21.8011 137.614 20.9859C137.966 20.1706 138.451 19.4435 139.046 18.8486C139.641 18.2537 140.368 17.7689 141.184 17.4164C141.999 17.0638 142.859 16.8435 143.784 16.8435C144.71 16.8435 145.591 17.0198 146.407 17.3723C147.222 17.7249 147.927 18.2096 148.544 18.8045C149.161 19.4215 149.624 20.1266 149.977 20.9418C150.329 21.7571 150.506 22.6384 150.506 23.5418C150.506 23.7401 150.506 23.9164 150.484 24.1147C150.461 24.291 150.439 24.4893 150.395 24.6876H140.28V24.7096ZM147.222 22.3079C146.98 21.6028 146.539 21.0299 145.922 20.5672C145.305 20.1045 144.578 19.8842 143.784 19.8842C142.991 19.8842 142.286 20.1045 141.647 20.5672C141.03 21.0079 140.567 21.6028 140.302 22.3079H147.222Z" fill="white"/>
<path d="M162.118 22.6609C162.118 22.2643 162.052 21.9117 161.898 21.5812C161.744 21.2507 161.545 20.9422 161.303 20.6999C161.061 20.4355 160.752 20.2372 160.422 20.105C160.091 19.9727 159.716 19.8846 159.32 19.8846C158.923 19.8846 158.57 19.9507 158.24 20.105C157.909 20.2372 157.623 20.4355 157.358 20.6999C157.116 20.9643 156.918 21.2507 156.763 21.5812C156.609 21.9117 156.543 22.2863 156.543 22.6609V30.0202H153.502V17.0863H156.543V18.0999C156.896 17.7033 157.314 17.4168 157.777 17.1965C158.24 16.9761 158.769 16.866 159.32 16.866C160.135 16.866 160.884 17.0202 161.59 17.3287C162.295 17.6372 162.912 18.0558 163.441 18.5846C163.97 19.1134 164.388 19.7304 164.697 20.4355C165.005 21.1405 165.16 21.8897 165.16 22.6829V30.0422H162.118V22.6609Z" fill="white"/>
<defs>
<clipPath id="clip0">
<rect width="30.6102" height="42" fill="white"/>
</clipPath>
</defs>
</svg>
