<svg width="720" height="1153" viewBox="0 0 720 1153" fill="none" xmlns="http://www.w3.org/2000/svg">
<g clip-path="url(#clip0)">
<rect width="720" height="1153" fill="#0D0E1D"/>
<g filter="url(#filter0_f)">
<circle cx="133.653" cy="1130.65" r="214.627" transform="rotate(59.6559 133.653 1130.65)" fill="#FFBC57"/>
<circle cx="133.653" cy="1130.65" r="214.627" transform="rotate(59.6559 133.653 1130.65)" fill="url(#paint0_radial)"/>
</g>
<g filter="url(#filter1_f)">
<path fill-rule="evenodd" clip-rule="evenodd" d="M708.425 426.933C763.683 428.531 822.512 413.211 869.472 442.359C917.772 472.339 941.733 528.377 959.051 582.498C976.299 636.402 982.681 693.469 967.246 747.92C951.388 803.864 917.845 853.085 872.145 889.073C825.093 926.127 767.754 960.025 708.425 951.74C651.095 943.733 624.744 876.953 574.886 847.56C516.379 813.068 423.271 827.164 393.56 766.118C364.435 706.273 416.804 638.804 443.648 577.903C467.681 523.38 488.679 462.37 540.461 432.846C590.341 404.405 651.021 425.274 708.425 426.933Z" fill="#FFBC57"/>
<path fill-rule="evenodd" clip-rule="evenodd" d="M708.425 426.933C763.683 428.531 822.512 413.211 869.472 442.359C917.772 472.339 941.733 528.377 959.051 582.498C976.299 636.402 982.681 693.469 967.246 747.92C951.388 803.864 917.845 853.085 872.145 889.073C825.093 926.127 767.754 960.025 708.425 951.74C651.095 943.733 624.744 876.953 574.886 847.56C516.379 813.068 423.271 827.164 393.56 766.118C364.435 706.273 416.804 638.804 443.648 577.903C467.681 523.38 488.679 462.37 540.461 432.846C590.341 404.405 651.021 425.274 708.425 426.933Z" fill="url(#paint1_radial)"/>
<path fill-rule="evenodd" clip-rule="evenodd" d="M708.425 426.933C763.683 428.531 822.512 413.211 869.472 442.359C917.772 472.339 941.733 528.377 959.051 582.498C976.299 636.402 982.681 693.469 967.246 747.92C951.388 803.864 917.845 853.085 872.145 889.073C825.093 926.127 767.754 960.025 708.425 951.74C651.095 943.733 624.744 876.953 574.886 847.56C516.379 813.068 423.271 827.164 393.56 766.118C364.435 706.273 416.804 638.804 443.648 577.903C467.681 523.38 488.679 462.37 540.461 432.846C590.341 404.405 651.021 425.274 708.425 426.933Z" fill="url(#paint2_linear)"/>
<path fill-rule="evenodd" clip-rule="evenodd" d="M708.425 426.933C763.683 428.531 822.512 413.211 869.472 442.359C917.772 472.339 941.733 528.377 959.051 582.498C976.299 636.402 982.681 693.469 967.246 747.92C951.388 803.864 917.845 853.085 872.145 889.073C825.093 926.127 767.754 960.025 708.425 951.74C651.095 943.733 624.744 876.953 574.886 847.56C516.379 813.068 423.271 827.164 393.56 766.118C364.435 706.273 416.804 638.804 443.648 577.903C467.681 523.38 488.679 462.37 540.461 432.846C590.341 404.405 651.021 425.274 708.425 426.933Z" fill="url(#paint3_linear)"/>
<path fill-rule="evenodd" clip-rule="evenodd" d="M708.425 426.933C763.683 428.531 822.512 413.211 869.472 442.359C917.772 472.339 941.733 528.377 959.051 582.498C976.299 636.402 982.681 693.469 967.246 747.92C951.388 803.864 917.845 853.085 872.145 889.073C825.093 926.127 767.754 960.025 708.425 951.74C651.095 943.733 624.744 876.953 574.886 847.56C516.379 813.068 423.271 827.164 393.56 766.118C364.435 706.273 416.804 638.804 443.648 577.903C467.681 523.38 488.679 462.37 540.461 432.846C590.341 404.405 651.021 425.274 708.425 426.933Z" fill="url(#paint4_linear)"/>
<path fill-rule="evenodd" clip-rule="evenodd" d="M708.425 426.933C763.683 428.531 822.512 413.211 869.472 442.359C917.772 472.339 941.733 528.377 959.051 582.498C976.299 636.402 982.681 693.469 967.246 747.92C951.388 803.864 917.845 853.085 872.145 889.073C825.093 926.127 767.754 960.025 708.425 951.74C651.095 943.733 624.744 876.953 574.886 847.56C516.379 813.068 423.271 827.164 393.56 766.118C364.435 706.273 416.804 638.804 443.648 577.903C467.681 523.38 488.679 462.37 540.461 432.846C590.341 404.405 651.021 425.274 708.425 426.933Z" fill="url(#paint5_linear)"/>
</g>
<g filter="url(#filter2_f)">
<path fill-rule="evenodd" clip-rule="evenodd" d="M172.983 -215.015C241.414 -225.48 309.788 -193.111 365.571 -152.1C421.137 -111.249 464.166 -54.0266 482.438 12.4925C500.19 77.1215 492.678 147.039 464.436 207.818C438.249 264.173 383.735 297.546 333.191 333.677C283.099 369.486 234.233 409.922 172.983 416.162C107.812 422.802 36.1694 412.429 -12.8282 368.931C-60.3506 326.742 -58.7763 255.227 -76.9173 194.311C-94.478 135.344 -136.202 77.2746 -117.102 18.7886C-98.0082 -39.68 -28.9817 -60.4944 18.8977 -99.0844C70.1982 -140.432 107.861 -205.056 172.983 -215.015Z" fill="#FFBC57"/>
<path fill-rule="evenodd" clip-rule="evenodd" d="M172.983 -215.015C241.414 -225.48 309.788 -193.111 365.571 -152.1C421.137 -111.249 464.166 -54.0266 482.438 12.4925C500.19 77.1215 492.678 147.039 464.436 207.818C438.249 264.173 383.735 297.546 333.191 333.677C283.099 369.486 234.233 409.922 172.983 416.162C107.812 422.802 36.1694 412.429 -12.8282 368.931C-60.3506 326.742 -58.7763 255.227 -76.9173 194.311C-94.478 135.344 -136.202 77.2746 -117.102 18.7886C-98.0082 -39.68 -28.9817 -60.4944 18.8977 -99.0844C70.1982 -140.432 107.861 -205.056 172.983 -215.015Z" fill="url(#paint6_radial)"/>
<path fill-rule="evenodd" clip-rule="evenodd" d="M172.983 -215.015C241.414 -225.48 309.788 -193.111 365.571 -152.1C421.137 -111.249 464.166 -54.0266 482.438 12.4925C500.19 77.1215 492.678 147.039 464.436 207.818C438.249 264.173 383.735 297.546 333.191 333.677C283.099 369.486 234.233 409.922 172.983 416.162C107.812 422.802 36.1694 412.429 -12.8282 368.931C-60.3506 326.742 -58.7763 255.227 -76.9173 194.311C-94.478 135.344 -136.202 77.2746 -117.102 18.7886C-98.0082 -39.68 -28.9817 -60.4944 18.8977 -99.0844C70.1982 -140.432 107.861 -205.056 172.983 -215.015Z" fill="url(#paint7_linear)"/>
<path fill-rule="evenodd" clip-rule="evenodd" d="M172.983 -215.015C241.414 -225.48 309.788 -193.111 365.571 -152.1C421.137 -111.249 464.166 -54.0266 482.438 12.4925C500.19 77.1215 492.678 147.039 464.436 207.818C438.249 264.173 383.735 297.546 333.191 333.677C283.099 369.486 234.233 409.922 172.983 416.162C107.812 422.802 36.1694 412.429 -12.8282 368.931C-60.3506 326.742 -58.7763 255.227 -76.9173 194.311C-94.478 135.344 -136.202 77.2746 -117.102 18.7886C-98.0082 -39.68 -28.9817 -60.4944 18.8977 -99.0844C70.1982 -140.432 107.861 -205.056 172.983 -215.015Z" fill="url(#paint8_linear)"/>
<path fill-rule="evenodd" clip-rule="evenodd" d="M172.983 -215.015C241.414 -225.48 309.788 -193.111 365.571 -152.1C421.137 -111.249 464.166 -54.0266 482.438 12.4925C500.19 77.1215 492.678 147.039 464.436 207.818C438.249 264.173 383.735 297.546 333.191 333.677C283.099 369.486 234.233 409.922 172.983 416.162C107.812 422.802 36.1694 412.429 -12.8282 368.931C-60.3506 326.742 -58.7763 255.227 -76.9173 194.311C-94.478 135.344 -136.202 77.2746 -117.102 18.7886C-98.0082 -39.68 -28.9817 -60.4944 18.8977 -99.0844C70.1982 -140.432 107.861 -205.056 172.983 -215.015Z" fill="url(#paint9_linear)"/>
</g>
</g>
<defs>
<filter id="filter0_f" x="-305.247" y="691.754" width="877.798" height="877.798" filterUnits="userSpaceOnUse" color-interpolation-filters="sRGB">
<feFlood flood-opacity="0" result="BackgroundImageFix"/>
<feBlend mode="normal" in="SourceGraphic" in2="BackgroundImageFix" result="shape"/>
<feGaussianBlur stdDeviation="112.118" result="effect1_foregroundBlur"/>
</filter>
<filter id="filter1_f" x="110" y="143" width="1141" height="1085" filterUnits="userSpaceOnUse" color-interpolation-filters="sRGB">
<feFlood flood-opacity="0" result="BackgroundImageFix"/>
<feBlend mode="normal" in="SourceGraphic" in2="BackgroundImageFix" result="shape"/>
<feGaussianBlur stdDeviation="137.5" result="effect1_foregroundBlur"/>
</filter>
<filter id="filter2_f" x="-319.458" y="-414.458" width="1008.92" height="1029.92" filterUnits="userSpaceOnUse" color-interpolation-filters="sRGB">
<feFlood flood-opacity="0" result="BackgroundImageFix"/>
<feBlend mode="normal" in="SourceGraphic" in2="BackgroundImageFix" result="shape"/>
<feGaussianBlur stdDeviation="98.7288" result="effect1_foregroundBlur"/>
</filter>
<radialGradient id="paint0_radial" cx="0" cy="0" r="1" gradientUnits="userSpaceOnUse" gradientTransform="translate(-14.056 1218.94) rotate(-41.5522) scale(331.226 28244.9)">
<stop stop-color="#EE7C65"/>
<stop offset="0.21875" stop-color="#F7C39D"/>
<stop offset="0.395833" stop-color="#EAD899"/>
<stop offset="0.578125" stop-color="#87D5FF"/>
<stop offset="0.791667" stop-color="#9281F5"/>
<stop offset="1" stop-color="#FA5284"/>
</radialGradient>
<radialGradient id="paint1_radial" cx="0" cy="0" r="1" gradientUnits="userSpaceOnUse" gradientTransform="translate(753.017 388.285) rotate(86.6976) scale(886.719 83478.5)">
<stop stop-color="#EE7C65"/>
<stop offset="0.21875" stop-color="#F7C39D"/>
<stop offset="0.395833" stop-color="#EAD899"/>
<stop offset="0.578125" stop-color="#87D5FF"/>
<stop offset="0.791667" stop-color="#9281F5"/>
<stop offset="1" stop-color="#FA5284"/>
</radialGradient>
<linearGradient id="paint2_linear" x1="385" y1="685.5" x2="938.595" y2="685.5" gradientUnits="userSpaceOnUse">
<stop stop-color="#FF48E2"/>
<stop offset="1" stop-color="#FF2936"/>
</linearGradient>
<linearGradient id="paint3_linear" x1="385" y1="693.143" x2="770.684" y2="974.545" gradientUnits="userSpaceOnUse">
<stop stop-color="#FAA94D"/>
<stop offset="1" stop-color="#F27038"/>
</linearGradient>
<linearGradient id="paint4_linear" x1="385" y1="693.143" x2="766.873" y2="975.738" gradientUnits="userSpaceOnUse">
<stop stop-color="#81A1FF"/>
<stop offset="1" stop-color="#5449E8"/>
</linearGradient>
<linearGradient id="paint5_linear" x1="385" y1="693.143" x2="768.603" y2="975.203" gradientUnits="userSpaceOnUse">
<stop stop-color="#FF5B5B"/>
<stop offset="1" stop-color="#7544FF"/>
</linearGradient>
<radialGradient id="paint6_radial" cx="0" cy="0" r="1" gradientUnits="userSpaceOnUse" gradientTransform="translate(260.339 -252.269) rotate(87.1086) scale(1052.05 86760.9)">
<stop stop-color="#EE7C65"/>
<stop offset="0.21875" stop-color="#F7C39D"/>
<stop offset="0.395833" stop-color="#EAD899"/>
<stop offset="0.578125" stop-color="#87D5FF"/>
<stop offset="0.791667" stop-color="#9281F5"/>
<stop offset="1" stop-color="#FA5284"/>
</radialGradient>
<linearGradient id="paint7_linear" x1="-122" y1="100.5" x2="453.139" y2="100.5" gradientUnits="userSpaceOnUse">
<stop stop-color="#FF48E2"/>
<stop offset="1" stop-color="#FF2936"/>
</linearGradient>
<linearGradient id="paint8_linear" x1="-122" y1="109.571" x2="314.122" y2="388.097" gradientUnits="userSpaceOnUse">
<stop stop-color="#FAA94D"/>
<stop offset="1" stop-color="#F27038"/>
</linearGradient>
<linearGradient id="paint9_linear" x1="-122" y1="109.571" x2="310.523" y2="389.737" gradientUnits="userSpaceOnUse">
<stop stop-color="#81A1FF"/>
<stop offset="1" stop-color="#5449E8"/>
</linearGradient>
<clipPath id="clip0">
<rect width="720" height="1153" fill="white"/>
</clipPath>
</defs>
</svg>
