<svg width="1440" height="1024" viewBox="0 0 1440 1024" fill="none" xmlns="http://www.w3.org/2000/svg">
<g clip-path="url(#clip0_79_319)">
<rect width="1440" height="1024" fill="black"/>
<g filter="url(#filter0_f_79_319)">
<path fill-rule="evenodd" clip-rule="evenodd" d="M1185.09 -243.048C1246.61 -241.268 1312.11 -258.335 1364.4 -225.863C1418.17 -192.465 1444.85 -130.038 1464.13 -69.7464C1483.33 -9.69612 1490.44 53.878 1473.25 114.537C1455.6 176.859 1418.25 231.693 1367.37 271.785C1314.98 313.063 1251.15 350.826 1185.09 341.596C1121.26 332.677 1091.92 258.282 1036.41 225.538C971.273 187.114 867.609 202.816 834.531 134.809C802.103 68.1413 860.41 -7.02057 890.297 -74.8652C917.054 -135.605 940.433 -203.571 998.085 -236.462C1053.62 -268.145 1121.18 -244.897 1185.09 -243.048Z" fill="#FFBC57"/>
<path fill-rule="evenodd" clip-rule="evenodd" d="M1185.09 -243.048C1246.61 -241.268 1312.11 -258.335 1364.4 -225.863C1418.17 -192.465 1444.85 -130.038 1464.13 -69.7464C1483.33 -9.69612 1490.44 53.878 1473.25 114.537C1455.6 176.859 1418.25 231.693 1367.37 271.785C1314.98 313.063 1251.15 350.826 1185.09 341.596C1121.26 332.677 1091.92 258.282 1036.41 225.538C971.273 187.114 867.609 202.816 834.531 134.809C802.103 68.1413 860.41 -7.02057 890.297 -74.8652C917.054 -135.605 940.433 -203.571 998.085 -236.462C1053.62 -268.145 1121.18 -244.897 1185.09 -243.048Z" fill="url(#paint0_radial_79_319)"/>
<path fill-rule="evenodd" clip-rule="evenodd" d="M1185.09 -243.048C1246.61 -241.268 1312.11 -258.335 1364.4 -225.863C1418.17 -192.465 1444.85 -130.038 1464.13 -69.7464C1483.33 -9.69612 1490.44 53.878 1473.25 114.537C1455.6 176.859 1418.25 231.693 1367.37 271.785C1314.98 313.063 1251.15 350.826 1185.09 341.596C1121.26 332.677 1091.92 258.282 1036.41 225.538C971.273 187.114 867.609 202.816 834.531 134.809C802.103 68.1413 860.41 -7.02057 890.297 -74.8652C917.054 -135.605 940.433 -203.571 998.085 -236.462C1053.62 -268.145 1121.18 -244.897 1185.09 -243.048Z" fill="url(#paint1_linear_79_319)"/>
<path fill-rule="evenodd" clip-rule="evenodd" d="M1185.09 -243.048C1246.61 -241.268 1312.11 -258.335 1364.4 -225.863C1418.17 -192.465 1444.85 -130.038 1464.13 -69.7464C1483.33 -9.69612 1490.44 53.878 1473.25 114.537C1455.6 176.859 1418.25 231.693 1367.37 271.785C1314.98 313.063 1251.15 350.826 1185.09 341.596C1121.26 332.677 1091.92 258.282 1036.41 225.538C971.273 187.114 867.609 202.816 834.531 134.809C802.103 68.1413 860.41 -7.02057 890.297 -74.8652C917.054 -135.605 940.433 -203.571 998.085 -236.462C1053.62 -268.145 1121.18 -244.897 1185.09 -243.048Z" fill="url(#paint2_linear_79_319)"/>
<path fill-rule="evenodd" clip-rule="evenodd" d="M1185.09 -243.048C1246.61 -241.268 1312.11 -258.335 1364.4 -225.863C1418.17 -192.465 1444.85 -130.038 1464.13 -69.7464C1483.33 -9.69612 1490.44 53.878 1473.25 114.537C1455.6 176.859 1418.25 231.693 1367.37 271.785C1314.98 313.063 1251.15 350.826 1185.09 341.596C1121.26 332.677 1091.92 258.282 1036.41 225.538C971.273 187.114 867.609 202.816 834.531 134.809C802.103 68.1413 860.41 -7.02057 890.297 -74.8652C917.054 -135.605 940.433 -203.571 998.085 -236.462C1053.62 -268.145 1121.18 -244.897 1185.09 -243.048Z" fill="url(#paint3_linear_79_319)"/>
<path fill-rule="evenodd" clip-rule="evenodd" d="M1185.09 -243.048C1246.61 -241.268 1312.11 -258.335 1364.4 -225.863C1418.17 -192.465 1444.85 -130.038 1464.13 -69.7464C1483.33 -9.69612 1490.44 53.878 1473.25 114.537C1455.6 176.859 1418.25 231.693 1367.37 271.785C1314.98 313.063 1251.15 350.826 1185.09 341.596C1121.26 332.677 1091.92 258.282 1036.41 225.538C971.273 187.114 867.609 202.816 834.531 134.809C802.103 68.1413 860.41 -7.02057 890.297 -74.8652C917.054 -135.605 940.433 -203.571 998.085 -236.462C1053.62 -268.145 1121.18 -244.897 1185.09 -243.048Z" fill="url(#paint4_linear_79_319)"/>
</g>
<g filter="url(#filter1_f_79_319)">
<path fill-rule="evenodd" clip-rule="evenodd" d="M886.834 571.67C978.893 557.595 1070.87 601.128 1145.92 656.282C1220.67 711.223 1278.56 788.18 1303.14 877.64C1327.02 964.559 1316.91 1058.59 1278.92 1140.33C1243.69 1216.12 1170.35 1261 1102.36 1309.6C1034.97 1357.75 969.232 1412.14 886.834 1420.53C799.16 1429.46 702.782 1415.51 636.866 1357.01C572.936 1300.27 575.053 1204.09 550.649 1122.16C527.025 1042.86 470.894 964.765 496.589 886.108C522.276 807.474 615.135 779.481 679.546 727.583C748.56 671.975 799.227 585.063 886.834 571.67Z" fill="url(#paint5_linear_79_319)"/>
</g>
<g filter="url(#filter2_f_79_319)">
<path fill-rule="evenodd" clip-rule="evenodd" d="M64.5985 811.801C126.677 802.308 188.704 831.669 239.308 868.87C289.715 905.925 328.75 957.831 345.325 1018.17C361.43 1076.79 354.615 1140.22 328.995 1195.35C305.239 1246.47 255.786 1276.74 209.934 1309.51C164.492 1341.99 120.162 1378.67 64.5985 1384.33C5.47747 1390.36 -59.514 1380.95 -103.963 1341.49C-147.074 1303.22 -145.646 1238.35 -162.103 1183.09C-178.033 1129.61 -215.884 1076.93 -198.557 1023.88C-181.235 970.845 -118.617 951.964 -75.1823 916.96C-28.6443 879.454 5.52209 820.834 64.5985 811.801Z" fill="url(#paint6_linear_79_319)"/>
</g>
</g>
<defs>
<filter id="filter0_f_79_319" x="475" y="-603" width="1358" height="1296" filterUnits="userSpaceOnUse" color-interpolation-filters="sRGB">
<feFlood flood-opacity="0" result="BackgroundImageFix"/>
<feBlend mode="normal" in="SourceGraphic" in2="BackgroundImageFix" result="shape"/>
<feGaussianBlur stdDeviation="175" result="effect1_foregroundBlur_79_319"/>
</filter>
<filter id="filter1_f_79_319" x="140" y="219" width="1526" height="1554" filterUnits="userSpaceOnUse" color-interpolation-filters="sRGB">
<feFlood flood-opacity="0" result="BackgroundImageFix"/>
<feBlend mode="normal" in="SourceGraphic" in2="BackgroundImageFix" result="shape"/>
<feGaussianBlur stdDeviation="175" result="effect1_foregroundBlur_79_319"/>
</filter>
<filter id="filter2_f_79_319" x="-553" y="460" width="1257" height="1276" filterUnits="userSpaceOnUse" color-interpolation-filters="sRGB">
<feFlood flood-opacity="0" result="BackgroundImageFix"/>
<feBlend mode="normal" in="SourceGraphic" in2="BackgroundImageFix" result="shape"/>
<feGaussianBlur stdDeviation="175" result="effect1_foregroundBlur_79_319"/>
</filter>
<radialGradient id="paint0_radial_79_319" cx="0" cy="0" r="1" gradientUnits="userSpaceOnUse" gradientTransform="translate(1234.74 -286.103) rotate(86.6995) scale(987.82 92942.4)">
<stop stop-color="#EE7C65"/>
<stop offset="0.21875" stop-color="#F7C39D"/>
<stop offset="0.395833" stop-color="#EAD899"/>
<stop offset="0.578125" stop-color="#87D5FF"/>
<stop offset="0.791667" stop-color="#9281F5"/>
<stop offset="1" stop-color="#FA5284"/>
</radialGradient>
<linearGradient id="paint1_linear_79_319" x1="825" y1="45" x2="1441.35" y2="45" gradientUnits="userSpaceOnUse">
<stop stop-color="#FF48E2"/>
<stop offset="1" stop-color="#FF2936"/>
</linearGradient>
<linearGradient id="paint2_linear_79_319" x1="825" y1="53.5143" x2="1254.58" y2="366.762" gradientUnits="userSpaceOnUse">
<stop stop-color="#FAA94D"/>
<stop offset="1" stop-color="#F27038"/>
</linearGradient>
<linearGradient id="paint3_linear_79_319" x1="825" y1="53.5143" x2="1250.34" y2="368.092" gradientUnits="userSpaceOnUse">
<stop stop-color="#81A1FF"/>
<stop offset="1" stop-color="#5449E8"/>
</linearGradient>
<linearGradient id="paint4_linear_79_319" x1="1033.5" y1="343" x2="1483.91" y2="302.985" gradientUnits="userSpaceOnUse">
<stop offset="0.445599" stop-color="#E11D17"/>
<stop offset="1" stop-color="#E11D17" stop-opacity="0.63"/>
</linearGradient>
<linearGradient id="paint5_linear_79_319" x1="490" y1="1008.2" x2="1071.76" y2="1385.15" gradientUnits="userSpaceOnUse">
<stop stop-color="#EF4969" stop-opacity="0.63"/>
<stop offset="1" stop-color="#FF2936"/>
</linearGradient>
<linearGradient id="paint6_linear_79_319" x1="-203" y1="1106.23" x2="189.35" y2="1360.39" gradientUnits="userSpaceOnUse">
<stop stop-color="#EF4969" stop-opacity="0.63"/>
<stop offset="1" stop-color="#FF2936"/>
</linearGradient>
<clipPath id="clip0_79_319">
<rect width="1440" height="1024" fill="white"/>
</clipPath>
</defs>
</svg>
