<svg width="720" height="1153" viewBox="0 0 720 1153" fill="none" xmlns="http://www.w3.org/2000/svg">
<g clip-path="url(#clip0_79_449)">
<rect width="720" height="1153" fill="black"/>
<g filter="url(#filter0_f_79_449)">
<path fill-rule="evenodd" clip-rule="evenodd" d="M816.093 582.913C858.823 584.149 904.313 572.294 940.626 594.85C977.974 618.049 996.503 661.413 1009.89 703.294C1023.23 745.006 1028.17 789.167 1016.23 831.302C1003.97 874.593 978.03 912.683 942.693 940.532C906.309 969.205 861.97 995.436 816.093 989.025C771.762 982.829 751.386 931.152 712.832 908.407C667.591 881.717 595.593 892.624 572.619 845.384C550.098 799.075 590.593 746.865 611.351 699.738C629.934 657.546 646.171 610.335 686.213 587.488C724.783 565.48 771.705 581.629 816.093 582.913Z" fill="#FFBC57"/>
<path fill-rule="evenodd" clip-rule="evenodd" d="M816.093 582.913C858.823 584.149 904.313 572.294 940.626 594.85C977.974 618.049 996.503 661.413 1009.89 703.294C1023.23 745.006 1028.17 789.167 1016.23 831.302C1003.97 874.593 978.03 912.683 942.693 940.532C906.309 969.205 861.97 995.436 816.093 989.025C771.762 982.829 751.386 931.152 712.832 908.407C667.591 881.717 595.593 892.624 572.619 845.384C550.098 799.075 590.593 746.865 611.351 699.738C629.934 657.546 646.171 610.335 686.213 587.488C724.783 565.48 771.705 581.629 816.093 582.913Z" fill="url(#paint0_radial_79_449)"/>
<path fill-rule="evenodd" clip-rule="evenodd" d="M816.093 582.913C858.823 584.149 904.313 572.294 940.626 594.85C977.974 618.049 996.503 661.413 1009.89 703.294C1023.23 745.006 1028.17 789.167 1016.23 831.302C1003.97 874.593 978.03 912.683 942.693 940.532C906.309 969.205 861.97 995.436 816.093 989.025C771.762 982.829 751.386 931.152 712.832 908.407C667.591 881.717 595.593 892.624 572.619 845.384C550.098 799.075 590.593 746.865 611.351 699.738C629.934 657.546 646.171 610.335 686.213 587.488C724.783 565.48 771.705 581.629 816.093 582.913Z" fill="url(#paint1_linear_79_449)"/>
<path fill-rule="evenodd" clip-rule="evenodd" d="M816.093 582.913C858.823 584.149 904.313 572.294 940.626 594.85C977.974 618.049 996.503 661.413 1009.89 703.294C1023.23 745.006 1028.17 789.167 1016.23 831.302C1003.97 874.593 978.03 912.683 942.693 940.532C906.309 969.205 861.97 995.436 816.093 989.025C771.762 982.829 751.386 931.152 712.832 908.407C667.591 881.717 595.593 892.624 572.619 845.384C550.098 799.075 590.593 746.865 611.351 699.738C629.934 657.546 646.171 610.335 686.213 587.488C724.783 565.48 771.705 581.629 816.093 582.913Z" fill="url(#paint2_linear_79_449)"/>
<path fill-rule="evenodd" clip-rule="evenodd" d="M816.093 582.913C858.823 584.149 904.313 572.294 940.626 594.85C977.974 618.049 996.503 661.413 1009.89 703.294C1023.23 745.006 1028.17 789.167 1016.23 831.302C1003.97 874.593 978.03 912.683 942.693 940.532C906.309 969.205 861.97 995.436 816.093 989.025C771.762 982.829 751.386 931.152 712.832 908.407C667.591 881.717 595.593 892.624 572.619 845.384C550.098 799.075 590.593 746.865 611.351 699.738C629.934 657.546 646.171 610.335 686.213 587.488C724.783 565.48 771.705 581.629 816.093 582.913Z" fill="url(#paint3_linear_79_449)"/>
<path fill-rule="evenodd" clip-rule="evenodd" d="M816.093 582.913C858.823 584.149 904.313 572.294 940.626 594.85C977.974 618.049 996.503 661.413 1009.89 703.294C1023.23 745.006 1028.17 789.167 1016.23 831.302C1003.97 874.593 978.03 912.683 942.693 940.532C906.309 969.205 861.97 995.436 816.093 989.025C771.762 982.829 751.386 931.152 712.832 908.407C667.591 881.717 595.593 892.624 572.619 845.384C550.098 799.075 590.593 746.865 611.351 699.738C629.934 657.546 646.171 610.335 686.213 587.488C724.783 565.48 771.705 581.629 816.093 582.913Z" fill="url(#paint4_linear_79_449)"/>
</g>
</g>
<defs>
<filter id="filter0_f_79_449" x="216" y="226" width="1157" height="1114" filterUnits="userSpaceOnUse" color-interpolation-filters="sRGB">
<feFlood flood-opacity="0" result="BackgroundImageFix"/>
<feBlend mode="normal" in="SourceGraphic" in2="BackgroundImageFix" result="shape"/>
<feGaussianBlur stdDeviation="175" result="effect1_foregroundBlur_79_449"/>
</filter>
<radialGradient id="paint0_radial_79_449" cx="0" cy="0" r="1" gradientUnits="userSpaceOnUse" gradientTransform="translate(850.575 553.006) rotate(86.7) scale(686.17 64551.2)">
<stop stop-color="#EE7C65"/>
<stop offset="0.21875" stop-color="#F7C39D"/>
<stop offset="0.395833" stop-color="#EAD899"/>
<stop offset="0.578125" stop-color="#87D5FF"/>
<stop offset="0.791667" stop-color="#9281F5"/>
<stop offset="1" stop-color="#FA5284"/>
</radialGradient>
<linearGradient id="paint1_linear_79_449" x1="566" y1="783" x2="994.076" y2="783" gradientUnits="userSpaceOnUse">
<stop stop-color="#FF48E2"/>
<stop offset="1" stop-color="#FF2936"/>
</linearGradient>
<linearGradient id="paint2_linear_79_449" x1="566" y1="788.914" x2="864.388" y2="1006.46" gradientUnits="userSpaceOnUse">
<stop stop-color="#FAA94D"/>
<stop offset="1" stop-color="#F27038"/>
</linearGradient>
<linearGradient id="paint3_linear_79_449" x1="566" y1="788.914" x2="861.442" y2="1007.39" gradientUnits="userSpaceOnUse">
<stop stop-color="#81A1FF"/>
<stop offset="1" stop-color="#5449E8"/>
</linearGradient>
<linearGradient id="paint4_linear_79_449" x1="710.809" y1="990" x2="1023.63" y2="962.213" gradientUnits="userSpaceOnUse">
<stop offset="0.445599" stop-color="#E11D17"/>
<stop offset="1" stop-color="#E11D17" stop-opacity="0.63"/>
</linearGradient>
<clipPath id="clip0_79_449">
<rect width="720" height="1153" fill="white"/>
</clipPath>
</defs>
</svg>
